<svg xmlns="http://www.w3.org/2000/svg" fill="none" viewBox="0 0 120 120">
  <mask id="a" width="110" height="29" x="5" y="46" fill="#000" maskUnits="userSpaceOnUse">
    <path fill="#fff" d="M5 46h110v29H5z"/>
    <path d="M17 72.7c-2.2 0-4-.3-5.5-1A7.8 7.8 0 0 1 8 68.9 7.6 7.6 0 0 1 7 64.8h5.8c0 .6.1 1 .4 1.5.3.5.8.8 1.4 1 .6.3 1.4.5 2.4.5.8 0 1.5-.1 2.1-.3.6-.3 1-.6 1.3-1 .4-.3.5-.8.5-1.3 0-.7-.3-1.2-.8-1.6-.6-.4-1.6-.6-3-.7l-1.5-.1c-2.4-.3-4.3-1-5.7-2.3a6.7 6.7 0 0 1-2.2-5.2 7 7 0 0 1 1-4 7 7 0 0 1 3.1-2.4c1.3-.6 2.9-.9 4.6-.9 2 0 3.6.3 4.9 1a7 7 0 0 1 3 2.7c.8 1.1 1.1 2.5 1.1 4h-5.7c0-.5-.2-1-.4-1.4-.3-.4-.6-.8-1.1-1-.5-.2-1-.4-1.8-.4-.6 0-1.1.1-1.6.3-.4.2-.7.5-1 .9a2.4 2.4 0 0 0 .3 2.7c.4.5 1.1.7 2.1.8l1.5.1c1.8.2 3.3.6 4.7 1.2 1.3.6 2.4 1.4 3.1 2.4.8 1 1.2 2.4 1.2 3.9s-.4 2.8-1.2 4c-.8 1-1.9 2-3.3 2.6a13 13 0 0 1-5.2.9ZM34.8 72V48.8h9.7l7.8 18.6h1.1l-.6.6V48.7h5.5v23.4h-9.8l-7.8-18.7h-1l.6-.5V72h-5.5ZM76.4 72.7c-2.2 0-4-.3-5.5-1a7.8 7.8 0 0 1-3.4-2.8 7.6 7.6 0 0 1-1-4.1h5.7c0 .6.1 1 .4 1.5.3.5.8.8 1.4 1 .6.3 1.4.5 2.4.5.8 0 1.5-.1 2.1-.3.6-.3 1-.6 1.3-1 .4-.3.5-.8.5-1.3 0-.7-.3-1.2-.8-1.6-.6-.4-1.6-.6-3-.7l-1.5-.1c-2.4-.3-4.3-1-5.7-2.3a6.7 6.7 0 0 1-2.2-5.2 7 7 0 0 1 1.1-4 7 7 0 0 1 3-2.4c1.3-.6 2.9-.9 4.6-.9 2 0 3.6.3 5 1a7 7 0 0 1 3 2.7c.7 1.1 1 2.5 1 4h-5.7c0-.5-.1-1-.4-1.4-.3-.4-.6-.8-1.1-1-.5-.2-1-.4-1.8-.4-.6 0-1.1.1-1.6.3-.4.2-.7.5-1 .9a2.4 2.4 0 0 0 .3 2.7c.4.5 1.1.7 2.1.8l1.5.1c1.8.2 3.3.6 4.7 1.2 1.3.6 2.4 1.4 3.1 2.4.8 1 1.2 2.4 1.2 3.9s-.4 2.8-1.2 4c-.8 1-1.9 2-3.3 2.6a13 13 0 0 1-5.2.9ZM102.5 72.7c-2.2 0-4-.3-5.5-1a7.8 7.8 0 0 1-3.4-2.8 7.6 7.6 0 0 1-1.1-4.1h5.8c0 .6.1 1 .4 1.5.3.5.8.8 1.4 1 .6.3 1.4.5 2.4.5.8 0 1.5-.1 2.1-.3.6-.3 1-.6 1.3-1 .4-.3.5-.8.5-1.3 0-.7-.3-1.2-.8-1.6-.6-.4-1.6-.6-3-.7l-1.5-.1c-2.4-.3-4.3-1-5.7-2.3a6.7 6.7 0 0 1-2.2-5.2 7 7 0 0 1 1-4 7 7 0 0 1 3.1-2.4c1.3-.6 2.9-.9 4.6-.9 2 0 3.6.3 4.9 1a7 7 0 0 1 3 2.7c.8 1.1 1.1 2.5 1.1 4h-5.7c0-.5-.2-1-.4-1.4-.3-.4-.6-.8-1.1-1-.5-.2-1-.4-1.8-.4-.6 0-1.1.1-1.6.3-.4.2-.7.5-1 .9a2.4 2.4 0 0 0 .3 2.7c.4.5 1.1.7 2.1.8l1.5.1c1.8.2 3.3.6 4.7 1.2 1.3.6 2.4 1.4 3.1 2.4.8 1 1.2 2.4 1.2 3.9s-.4 2.8-1.2 4c-.8 1-1.9 2-3.3 2.6a13 13 0 0 1-5.2.9Z"/>
  </mask>
  <path stroke="#F35627" stroke-width="4" d="M17 72.7c-2.2 0-4-.3-5.5-1A7.8 7.8 0 0 1 8 68.9 7.6 7.6 0 0 1 7 64.8h5.8c0 .6.1 1 .4 1.5.3.5.8.8 1.4 1 .6.3 1.4.5 2.4.5.8 0 1.5-.1 2.1-.3.6-.3 1-.6 1.3-1 .4-.3.5-.8.5-1.3 0-.7-.3-1.2-.8-1.6-.6-.4-1.6-.6-3-.7l-1.5-.1c-2.4-.3-4.3-1-5.7-2.3a6.7 6.7 0 0 1-2.2-5.2 7 7 0 0 1 1-4 7 7 0 0 1 3.1-2.4c1.3-.6 2.9-.9 4.6-.9 2 0 3.6.3 4.9 1a7 7 0 0 1 3 2.7c.8 1.1 1.1 2.5 1.1 4h-5.7c0-.5-.2-1-.4-1.4-.3-.4-.6-.8-1.1-1-.5-.2-1-.4-1.8-.4-.6 0-1.1.1-1.6.3-.4.2-.7.5-1 .9a2.4 2.4 0 0 0 .3 2.7c.4.5 1.1.7 2.1.8l1.5.1c1.8.2 3.3.6 4.7 1.2 1.3.6 2.4 1.4 3.1 2.4.8 1 1.2 2.4 1.2 3.9s-.4 2.8-1.2 4c-.8 1-1.9 2-3.3 2.6a13 13 0 0 1-5.2.9ZM34.8 72V48.8h9.7l7.8 18.6h1.1l-.6.6V48.7h5.5v23.4h-9.8l-7.8-18.7h-1l.6-.5V72h-5.5ZM76.4 72.7c-2.2 0-4-.3-5.5-1a7.8 7.8 0 0 1-3.4-2.8 7.6 7.6 0 0 1-1-4.1h5.7c0 .6.1 1 .4 1.5.3.5.8.8 1.4 1 .6.3 1.4.5 2.4.5.8 0 1.5-.1 2.1-.3.6-.3 1-.6 1.3-1 .4-.3.5-.8.5-1.3 0-.7-.3-1.2-.8-1.6-.6-.4-1.6-.6-3-.7l-1.5-.1c-2.4-.3-4.3-1-5.7-2.3a6.7 6.7 0 0 1-2.2-5.2 7 7 0 0 1 1.1-4 7 7 0 0 1 3-2.4c1.3-.6 2.9-.9 4.6-.9 2 0 3.6.3 5 1a7 7 0 0 1 3 2.7c.7 1.1 1 2.5 1 4h-5.7c0-.5-.1-1-.4-1.4-.3-.4-.6-.8-1.1-1-.5-.2-1-.4-1.8-.4-.6 0-1.1.1-1.6.3-.4.2-.7.5-1 .9a2.4 2.4 0 0 0 .3 2.7c.4.5 1.1.7 2.1.8l1.5.1c1.8.2 3.3.6 4.7 1.2 1.3.6 2.4 1.4 3.1 2.4.8 1 1.2 2.4 1.2 3.9s-.4 2.8-1.2 4c-.8 1-1.9 2-3.3 2.6a13 13 0 0 1-5.2.9ZM102.5 72.7c-2.2 0-4-.3-5.5-1a7.8 7.8 0 0 1-3.4-2.8 7.6 7.6 0 0 1-1.1-4.1h5.8c0 .6.1 1 .4 1.5.3.5.8.8 1.4 1 .6.3 1.4.5 2.4.5.8 0 1.5-.1 2.1-.3.6-.3 1-.6 1.3-1 .4-.3.5-.8.5-1.3 0-.7-.3-1.2-.8-1.6-.6-.4-1.6-.6-3-.7l-1.5-.1c-2.4-.3-4.3-1-5.7-2.3a6.7 6.7 0 0 1-2.2-5.2 7 7 0 0 1 1-4 7 7 0 0 1 3.1-2.4c1.3-.6 2.9-.9 4.6-.9 2 0 3.6.3 4.9 1a7 7 0 0 1 3 2.7c.8 1.1 1.1 2.5 1.1 4h-5.7c0-.5-.2-1-.4-1.4-.3-.4-.6-.8-1.1-1-.5-.2-1-.4-1.8-.4-.6 0-1.1.1-1.6.3-.4.2-.7.5-1 .9a2.4 2.4 0 0 0 .3 2.7c.4.5 1.1.7 2.1.8l1.5.1c1.8.2 3.3.6 4.7 1.2 1.3.6 2.4 1.4 3.1 2.4.8 1 1.2 2.4 1.2 3.9s-.4 2.8-1.2 4c-.8 1-1.9 2-3.3 2.6a13 13 0 0 1-5.2.9Z" mask="url(#a)"/>
</svg>
